<svg xmlns="http://www.w3.org/2000/svg" xmlns:xlink="http://www.w3.org/1999/xlink" viewBox="0 0 822.75 858.5"><title>OTOGO</title><g style="isolation:isolate"><g id="Layer_1" data-name="Layer 1"><image width="2855" height="2472" transform="translate(85.59 142.19) scale(0.24)" opacity="0.75" xlink:href="OTOGO1.png" style="mix-blend-mode:multiply"/><path d="M225.38,260.13q147.71,69.56,147.71,125.19,0,39.36-72.43,106.71-46.58,32-84.22,45.58Q133.55,501.55,93.82,412.23V411q24.53-56,90.11-122.45Q216.44,260.14,225.38,260.13ZM139.64,436.57q7.41,19.23,59.12,59.67h1.52q87.82-56,115.21-125.19,0-27.82-66.54-64.06Q176.71,343,139.64,436.57Zm84.21-78.34q32.52,16.84,32.51,34.23,0,12.27-26.61,31.3h-4.37q-21.49-12.25-31-27.09v-2.93Q194.39,379.84,223.85,358.23Z" fill="#fff"/><path d="M601,260.13q147.72,69.56,147.72,125.19,0,39.36-72.43,106.71-46.59,32-84.22,45.58-82.89-36.06-122.62-125.38V411q24.53-56,90.11-122.45Q592.08,260.14,601,260.13ZM515.27,436.57q7.43,19.23,59.13,59.67h1.52q87.83-56,115.21-125.19,0-27.82-66.54-64.06Q552.33,343,515.27,436.57Zm84.22-78.34Q632,375.07,632,392.46q0,12.27-26.61,31.3H601q-21.48-12.25-31-27.09v-2.93Q570,379.84,599.49,358.23Z" fill="#fff"/><path d="M264.81,214.43l10.46-37.61q3-10.8,7.82-14.17L315.24,192l14.16-40.83,1.55-.91,1.2.33q35.84,27.66,36.26,33.14l-5.61,20.16q-8.83,31.78,14.8,46,38.49,46.07,54.89,50.63,8.61,2.4,14.9-20.25l1-3.75a285.29,285.29,0,0,0,10.64-71.58l1.55-.92,1.2.34q31.15,39.1,43.54,69l-8.57,35.45q-14.87,37.95-43.67,29.94l-7.2-2q-48.21-13.41-180.85-113.87Z" fill="#fff"/><path d="M420.8,423.26l47.91,37.52q-83.46,86.57-109.32,139.83-9.12,11.17-9.12,17.39v1.47q0,24.35,66,46.12h4.56q29.28-13.9,55.51-57.66-21.1-13-25.47-13l-31.56,37.52h-3q-13.32-9.71-13.31-18.67,0-12.43,58.36-76.51,6.09-8.78,15-8.78,10.45,0,113.88,86.57,13.5,12.82,13.5,20.14v6q0,20.87-37.46,46.12-51.51-51.61-67.49-63.69h-1.52q-65.21,89.69-93,89.68h-7.41q-45.45,0-88.41-39-22.62-27.27-22.62-46.31,0-66.63,133.46-204.81Z" fill="#fff"/></g></g></svg>