<svg id="Layer_1" data-name="Layer 1" xmlns="http://www.w3.org/2000/svg" xmlns:xlink="http://www.w3.org/1999/xlink" viewBox="0 0 1080 1350"><defs><radialGradient id="radial-gradient" cx="266.16" cy="508.07" r="202.93" gradientUnits="userSpaceOnUse"><stop offset="0" stop-color="#1c1853"/><stop offset="1" stop-color="#005d95"/></radialGradient><radialGradient id="radial-gradient-2" cx="813.84" cy="508.07" r="202.93" xlink:href="#radial-gradient"/><radialGradient id="radial-gradient-3" cx="487.23" cy="283.93" r="157.96" xlink:href="#radial-gradient"/><radialGradient id="radial-gradient-4" cx="401.81" cy="692.07" r="652.02" gradientUnits="userSpaceOnUse"><stop offset="0" stop-color="#5d9fd6"/><stop offset="1" stop-color="#a6d9c7"/></radialGradient><radialGradient id="radial-gradient-5" cx="545.65" cy="1152.29" r="229.14" gradientUnits="userSpaceOnUse"><stop offset="0" stop-color="#4e4e4e"/><stop offset="1"/></radialGradient></defs><title>OTOGO</title><path d="M254.38,305.79Q469.75,407.2,469.75,488.32q0,57.39-105.61,155.58-67.9,46.71-122.79,66.45Q120.51,657.77,62.58,527.55v-1.87Q98.32,444,194,347.15,241.36,305.79,254.38,305.79ZM129.38,563q10.8,28,86.2,87h2.21q128.07-81.66,168-182.53,0-40.56-97-93.4Q183.42,426.69,129.38,563ZM252.16,448.83q47.4,24.56,47.4,49.9,0,17.88-38.8,45.63h-6.38q-31.32-17.86-45.18-39.49V500.6Q209.2,480.32,252.16,448.83Z" fill="url(#radial-gradient)"/><path d="M802.06,305.79q215.37,101.41,215.36,182.53,0,57.39-105.6,155.58Q843.92,690.61,789,710.35q-120.85-52.58-178.78-182.8v-1.87Q646,444,741.63,347.15,789,305.79,802.06,305.79ZM677.05,563q10.82,28,86.2,87h2.22q128.06-81.66,168-182.53,0-40.56-97-93.4Q731.1,426.69,677.05,563ZM799.84,448.83q47.4,24.56,47.4,49.9,0,17.88-38.81,45.63h-6.37q-31.34-17.86-45.18-39.49V500.6Q756.88,480.32,799.84,448.83Z" fill="url(#radial-gradient-2)"/><path d="M311.88,239.16l15.25-54.84q4.38-15.73,11.4-20.65l46.87,42.74,20.65-59.54,2.25-1.33,1.75.49q52.27,40.32,52.87,48.32l-8.17,29.38q-12.9,46.36,21.58,67,56.1,67.19,80,73.83,12.55,3.48,21.73-29.54l1.51-5.45a416.44,416.44,0,0,0,15.52-104.38l2.25-1.33,1.75.49q45.42,57,63.48,100.56L650.1,376.63Q628.44,432,586.43,420.29l-10.5-2.92q-70.29-19.55-263.67-166Z" fill="url(#radial-gradient-3)"/><path d="M539.31,543.63l69.85,54.7Q487.48,724.56,449.78,802.21q-13.3,16.29-13.3,25.35v2.14q0,35.49,96.18,67.25h6.65q42.68-20.28,80.93-84.06-30.76-18.95-37.14-18.95l-46,54.71h-4.43q-19.41-14.14-19.41-27.22,0-18.15,85.1-111.55,8.86-12.81,21.89-12.81,15.24,0,166,126.22Q806,842,806,852.65v8.81q0,30.42-54.6,67.24-75.12-75.26-98.4-92.86h-2.22Q555.66,966.6,515.19,966.6H504.38q-66.24,0-128.88-56.84-33-39.76-33-67.52,0-97.12,194.58-298.61Z" fill="url(#radial-gradient-4)"/><path d="M297.67,1207.53c-33.21,0-59.07-22.06-59.07-62.39,0-40.56,25.86-62.39,59.07-62.39,33,0,59.07,21.83,59.07,62.39S330.65,1207.53,297.67,1207.53Zm0-96.07c-16.37,0-25.14,11.86-25.14,33.68s8.77,33.69,25.14,33.69,25.15-11.86,25.15-33.69S314,1111.46,297.67,1111.46Z" fill="url(#radial-gradient-5)"/><path d="M362.91,1084.41H468.48V1111H431.94v94.89h-32.5V1111H362.91Z" fill="url(#radial-gradient-5)"/><path d="M533.71,1207.53c-33.21,0-59.07-22.06-59.07-62.39,0-40.56,25.86-62.39,59.07-62.39,33,0,59.07,21.83,59.07,62.39S566.69,1207.53,533.71,1207.53Zm0-96.07c-16.37,0-25.14,11.86-25.14,33.68s8.77,33.69,25.14,33.69,25.15-11.86,25.15-33.69S550.08,1111.46,533.71,1111.46Z" fill="url(#radial-gradient-5)"/><path d="M663.24,1096.51c-21.59,0-38.91,17.08-38.91,48.63s17.32,48.64,39.86,48.64c20.58,0,34.93-13.76,35.34-35.59h-32v-13h46.26v13c0,30.07-20.64,49.34-49.58,49.34-32.26,0-54.09-24-54.09-62.39s22-62.39,53.14-62.39c25.62,0,45.31,16.14,49.82,39.62H697.87C692.71,1106.42,680.79,1096.51,663.24,1096.51Z" fill="url(#radial-gradient-5)"/><path d="M787.78,1207.53c-31.07,0-53.61-24-53.61-62.39s22.54-62.39,53.61-62.39,53.62,24,53.62,62.39S818.86,1207.53,787.78,1207.53Zm0-111c-22.06,0-39.38,17.08-39.38,48.63s17.32,48.64,39.38,48.64,39.38-17.08,39.38-48.64S809.85,1096.51,787.78,1096.51Z" fill="url(#radial-gradient-5)"/></svg>